<mxfile host="app.diagrams.net" modified="2024-06-04T18:17:41.568Z" agent="Mozilla/5.0 (Windows NT 10.0; Win64; x64) AppleWebKit/537.36 (KHTML, like Gecko) Chrome/125.0.0.0 Safari/537.36" etag="xRkNvk7yK3IU5T71CFGl" version="24.4.13" type="github">
  <diagram name="페이지-1" id="1g7UtiL25xNq1P0q8q4Y">
    <mxGraphModel dx="797" dy="1583" grid="1" gridSize="10" guides="1" tooltips="1" connect="1" arrows="1" fold="1" page="1" pageScale="1" pageWidth="827" pageHeight="1169" math="0" shadow="0">
      <root>
        <mxCell id="0" />
        <mxCell id="1" parent="0" />
        <mxCell id="2" value="User" style="whiteSpace=wrap;strokeWidth=2;" parent="1" vertex="1">
          <mxGeometry x="9" width="55" height="30" as="geometry" />
        </mxCell>
        <mxCell id="4" value="" style="curved=1;startArrow=none;endArrow=block;exitX=1;exitY=0.5;entryX=0;entryY=0.5;entryDx=0;entryDy=0;exitDx=0;exitDy=0;" parent="1" source="2" target="j65EMW2SuawNJBO0TKCp-4" edge="1">
          <mxGeometry relative="1" as="geometry">
            <Array as="points" />
            <mxPoint x="130" y="17" as="targetPoint" />
          </mxGeometry>
        </mxCell>
        <mxCell id="j65EMW2SuawNJBO0TKCp-4" value="&lt;font style=&quot;font-size: 8px;&quot;&gt;게시글 목록 조회&lt;/font&gt;" style="ellipse;whiteSpace=wrap;html=1;" vertex="1" parent="1">
          <mxGeometry x="130" y="-80" width="70" height="30" as="geometry" />
        </mxCell>
        <mxCell id="j65EMW2SuawNJBO0TKCp-5" value="&lt;font style=&quot;font-size: 10px;&quot;&gt;게시글 작성&lt;/font&gt;" style="ellipse;whiteSpace=wrap;html=1;" vertex="1" parent="1">
          <mxGeometry x="130" y="-40" width="70" height="30" as="geometry" />
        </mxCell>
        <mxCell id="j65EMW2SuawNJBO0TKCp-6" value="" style="curved=1;startArrow=none;endArrow=block;exitX=1;exitY=0.5;entryX=0;entryY=0.5;entryDx=0;entryDy=0;exitDx=0;exitDy=0;" edge="1" parent="1" source="2" target="j65EMW2SuawNJBO0TKCp-5">
          <mxGeometry relative="1" as="geometry">
            <Array as="points" />
            <mxPoint x="74" y="25" as="sourcePoint" />
            <mxPoint x="140" y="-25" as="targetPoint" />
          </mxGeometry>
        </mxCell>
        <mxCell id="j65EMW2SuawNJBO0TKCp-7" value="&lt;font style=&quot;font-size: 10px;&quot;&gt;게시글 조회&lt;/font&gt;" style="ellipse;whiteSpace=wrap;html=1;" vertex="1" parent="1">
          <mxGeometry x="130" width="70" height="30" as="geometry" />
        </mxCell>
        <mxCell id="j65EMW2SuawNJBO0TKCp-8" value="" style="curved=1;startArrow=none;endArrow=block;entryX=0;entryY=0.5;entryDx=0;entryDy=0;exitX=1;exitY=0.5;exitDx=0;exitDy=0;" edge="1" target="j65EMW2SuawNJBO0TKCp-7" parent="1" source="2">
          <mxGeometry relative="1" as="geometry">
            <Array as="points" />
            <mxPoint x="70" y="20" as="sourcePoint" />
            <mxPoint x="140" y="15" as="targetPoint" />
          </mxGeometry>
        </mxCell>
        <mxCell id="j65EMW2SuawNJBO0TKCp-9" value="&lt;font style=&quot;font-size: 10px;&quot;&gt;게시글 수정&lt;/font&gt;" style="ellipse;whiteSpace=wrap;html=1;" vertex="1" parent="1">
          <mxGeometry x="130" y="45" width="70" height="30" as="geometry" />
        </mxCell>
        <mxCell id="j65EMW2SuawNJBO0TKCp-10" value="" style="curved=1;startArrow=none;endArrow=block;entryX=0;entryY=0.5;entryDx=0;entryDy=0;exitX=1;exitY=0.5;exitDx=0;exitDy=0;" edge="1" target="j65EMW2SuawNJBO0TKCp-9" parent="1" source="2">
          <mxGeometry relative="1" as="geometry">
            <Array as="points" />
            <mxPoint x="64" y="60" as="sourcePoint" />
            <mxPoint x="140" y="60" as="targetPoint" />
          </mxGeometry>
        </mxCell>
        <mxCell id="j65EMW2SuawNJBO0TKCp-11" value="&lt;font style=&quot;font-size: 10px;&quot;&gt;게시글 삭제&lt;/font&gt;" style="ellipse;whiteSpace=wrap;html=1;" vertex="1" parent="1">
          <mxGeometry x="130" y="90" width="70" height="30" as="geometry" />
        </mxCell>
        <mxCell id="j65EMW2SuawNJBO0TKCp-12" value="" style="curved=1;startArrow=none;endArrow=block;entryX=0;entryY=0.5;entryDx=0;entryDy=0;exitX=1;exitY=0.5;exitDx=0;exitDy=0;" edge="1" target="j65EMW2SuawNJBO0TKCp-11" parent="1" source="2">
          <mxGeometry relative="1" as="geometry">
            <Array as="points" />
            <mxPoint x="64" y="105" as="sourcePoint" />
            <mxPoint x="140" y="105" as="targetPoint" />
          </mxGeometry>
        </mxCell>
        <mxCell id="j65EMW2SuawNJBO0TKCp-13" value="&lt;font style=&quot;font-size: 10px;&quot;&gt;게시자 인증&lt;/font&gt;" style="ellipse;whiteSpace=wrap;html=1;" vertex="1" parent="1">
          <mxGeometry x="270" y="45" width="70" height="30" as="geometry" />
        </mxCell>
        <mxCell id="j65EMW2SuawNJBO0TKCp-14" value="" style="curved=1;startArrow=none;endArrow=block;entryX=0;entryY=0.5;entryDx=0;entryDy=0;exitX=1;exitY=0.5;exitDx=0;exitDy=0;dashed=1;" edge="1" parent="1" source="j65EMW2SuawNJBO0TKCp-9" target="j65EMW2SuawNJBO0TKCp-13">
          <mxGeometry relative="1" as="geometry">
            <Array as="points" />
            <mxPoint x="200" y="60" as="sourcePoint" />
            <mxPoint x="263" y="105" as="targetPoint" />
          </mxGeometry>
        </mxCell>
        <mxCell id="j65EMW2SuawNJBO0TKCp-16" value="" style="curved=1;startArrow=none;endArrow=block;entryX=0;entryY=0.5;entryDx=0;entryDy=0;exitX=1;exitY=0.5;exitDx=0;exitDy=0;dashed=1;" edge="1" parent="1" source="j65EMW2SuawNJBO0TKCp-11" target="j65EMW2SuawNJBO0TKCp-13">
          <mxGeometry relative="1" as="geometry">
            <Array as="points" />
            <mxPoint x="250" y="105" as="sourcePoint" />
            <mxPoint x="320" y="104.75999999999999" as="targetPoint" />
          </mxGeometry>
        </mxCell>
      </root>
    </mxGraphModel>
  </diagram>
</mxfile>
